<?xml version="1.0" encoding="UTF-8"?><svg id="Capa_2" xmlns="http://www.w3.org/2000/svg" xmlns:xlink="http://www.w3.org/1999/xlink" viewBox="0 0 1928.9 279.39"><defs><style>.cls-1{stroke:url(#Degradado_sin_nombre_71-2);}.cls-1,.cls-2,.cls-3,.cls-4,.cls-5,.cls-6,.cls-7,.cls-8,.cls-9,.cls-10,.cls-11{fill:none;stroke-miterlimit:10;stroke-width:1.97px;}.cls-2{stroke:url(#Degradado_sin_nombre_71-9);}.cls-3{stroke:url(#Degradado_sin_nombre_71-8);}.cls-4{stroke:url(#Degradado_sin_nombre_71-11);}.cls-5{stroke:url(#Degradado_sin_nombre_71-4);}.cls-6{stroke:url(#Degradado_sin_nombre_71);}.cls-7{stroke:url(#Degradado_sin_nombre_71-5);}.cls-8{stroke:url(#Degradado_sin_nombre_71-10);}.cls-9{stroke:url(#Degradado_sin_nombre_71-6);}.cls-10{stroke:url(#Degradado_sin_nombre_71-3);}.cls-11{stroke:url(#Degradado_sin_nombre_71-7);}.cls-12{opacity:.25;}</style><linearGradient id="Degradado_sin_nombre_71" x1="964.45" y1="279.39" x2="964.45" y2="0" gradientTransform="matrix(1, 0, 0, 1, 0, 0)" gradientUnits="userSpaceOnUse"><stop offset="0" stop-color="#f05a24"/><stop offset="1" stop-color="#f05a24" stop-opacity="0"/></linearGradient><linearGradient id="Degradado_sin_nombre_71-2" x1="964.45" y1="205.09" x2="964.45" y2="203.12" xlink:href="#Degradado_sin_nombre_71"/><linearGradient id="Degradado_sin_nombre_71-3" x1="964.45" y1="146.88" x2="964.45" y2="144.91" xlink:href="#Degradado_sin_nombre_71"/><linearGradient id="Degradado_sin_nombre_71-4" x1="964.45" y1="100.04" x2="964.45" y2="98.07" xlink:href="#Degradado_sin_nombre_71"/><linearGradient id="Degradado_sin_nombre_71-5" x1="964.45" y1="61.53" x2="964.45" y2="59.56" xlink:href="#Degradado_sin_nombre_71"/><linearGradient id="Degradado_sin_nombre_71-6" x1="964.45" y1="29.32" x2="964.45" y2="27.35" xlink:href="#Degradado_sin_nombre_71"/><linearGradient id="Degradado_sin_nombre_71-7" x1="1459.97" y1="279.12" x2="1459.97" y2=".27" xlink:href="#Degradado_sin_nombre_71"/><linearGradient id="Degradado_sin_nombre_71-8" x1="1212.21" y1="278.86" x2="1212.21" y2=".53" xlink:href="#Degradado_sin_nombre_71"/><linearGradient id="Degradado_sin_nombre_71-9" x1="964.45" y1="278.4" x2="964.45" y2=".99" xlink:href="#Degradado_sin_nombre_71"/><linearGradient id="Degradado_sin_nombre_71-10" x1="716.69" y1="278.86" x2="716.69" y2=".53" xlink:href="#Degradado_sin_nombre_71"/><linearGradient id="Degradado_sin_nombre_71-11" x1="468.93" y1="279.12" x2="468.93" y2=".27" xlink:href="#Degradado_sin_nombre_71"/></defs><g id="Capa_2-2"><g class="cls-12"><polygon class="cls-6" points="438.94 .99 1489.96 .99 1925.52 278.4 3.39 278.4 438.94 .99"/><line class="cls-1" x1="120.03" y1="204.11" x2="1808.87" y2="204.11"/><line class="cls-10" x1="211.43" y1="145.89" x2="1717.47" y2="145.89"/><line class="cls-5" x1="284.97" y1="99.05" x2="1643.93" y2="99.05"/><line class="cls-7" x1="345.43" y1="60.55" x2="1583.47" y2="60.55"/><line class="cls-9" x1="396.01" y1="28.33" x2="1532.89" y2="28.33"/><line class="cls-11" x1="1314.79" y1=".99" x2="1605.16" y2="278.4"/><line class="cls-3" x1="1139.62" y1=".99" x2="1284.81" y2="278.4"/><line class="cls-2" x1="964.45" y1=".99" x2="964.45" y2="278.4"/><line class="cls-8" x1="789.28" y1=".99" x2="644.1" y2="278.4"/><line class="cls-4" x1="614.11" y1=".99" x2="323.74" y2="278.4"/></g></g></svg>