<?xml version="1.0" encoding="UTF-8"?><svg id="Capa_2" xmlns="http://www.w3.org/2000/svg" xmlns:xlink="http://www.w3.org/1999/xlink" viewBox="0 0 1928.84 287.02"><defs><style>.cls-1{stroke:url(#Degradado_sin_nombre_70-11);}.cls-1,.cls-2,.cls-3,.cls-4,.cls-5,.cls-6,.cls-7,.cls-8,.cls-9,.cls-10,.cls-11{fill:none;stroke-miterlimit:10;stroke-width:2px;}.cls-2{stroke:url(#Degradado_sin_nombre_70-8);}.cls-3{stroke:url(#Degradado_sin_nombre_70-10);}.cls-4{stroke:url(#Degradado_sin_nombre_70);}.cls-5{stroke:url(#Degradado_sin_nombre_70-6);}.cls-6{stroke:url(#Degradado_sin_nombre_70-9);}.cls-7{stroke:url(#Degradado_sin_nombre_70-7);}.cls-8{stroke:url(#Degradado_sin_nombre_70-5);}.cls-9{stroke:url(#Degradado_sin_nombre_70-4);}.cls-10{stroke:url(#Degradado_sin_nombre_70-2);}.cls-12{opacity:.25;}.cls-11{stroke:url(#Degradado_sin_nombre_70-3);}</style><linearGradient id="Degradado_sin_nombre_70" x1="964.42" y1="287.02" x2="964.42" y2="0" gradientTransform="matrix(1, 0, 0, 1, 0, 0)" gradientUnits="userSpaceOnUse"><stop offset="0" stop-color="red"/><stop offset="1" stop-color="red" stop-opacity="0"/></linearGradient><linearGradient id="Degradado_sin_nombre_70-2" x1="964.42" y1="210.69" x2="964.42" y2="208.69" xlink:href="#Degradado_sin_nombre_70"/><linearGradient id="Degradado_sin_nombre_70-3" x1="964.42" y1="150.88" x2="964.42" y2="148.88" xlink:href="#Degradado_sin_nombre_70"/><linearGradient id="Degradado_sin_nombre_70-4" x1="964.42" y1="102.75" x2="964.42" y2="100.75" xlink:href="#Degradado_sin_nombre_70"/><linearGradient id="Degradado_sin_nombre_70-5" x1="964.42" y1="63.19" x2="964.42" y2="61.19" xlink:href="#Degradado_sin_nombre_70"/><linearGradient id="Degradado_sin_nombre_70-6" x1="964.42" y1="30.1" x2="964.42" y2="28.1" xlink:href="#Degradado_sin_nombre_70"/><linearGradient id="Degradado_sin_nombre_70-7" x1="1459.94" y1="286.73" x2="1459.94" y2=".29" xlink:href="#Degradado_sin_nombre_70"/><linearGradient id="Degradado_sin_nombre_70-8" x1="1212.18" y1="286.47" x2="1212.18" y2=".55" xlink:href="#Degradado_sin_nombre_70"/><linearGradient id="Degradado_sin_nombre_70-9" x1="964.42" y1="286.02" x2="964.42" y2="1" xlink:href="#Degradado_sin_nombre_70"/><linearGradient id="Degradado_sin_nombre_70-10" x1="716.66" y1="286.47" x2="716.66" y2=".55" xlink:href="#Degradado_sin_nombre_70"/><linearGradient id="Degradado_sin_nombre_70-11" x1="468.9" y1="286.73" x2="468.9" y2=".29" xlink:href="#Degradado_sin_nombre_70"/></defs><g id="Capa_2-2"><g class="cls-12"><polygon class="cls-4" points="438.91 1 1489.93 1 1925.49 286.02 3.35 286.02 438.91 1"/><line class="cls-10" x1="120" y1="209.69" x2="1808.84" y2="209.69"/><line class="cls-11" x1="211.4" y1="149.88" x2="1717.44" y2="149.88"/><line class="cls-9" x1="284.94" y1="101.75" x2="1643.9" y2="101.75"/><line class="cls-8" x1="345.4" y1="62.19" x2="1583.44" y2="62.19"/><line class="cls-5" x1="395.98" y1="29.1" x2="1532.86" y2="29.1"/><line class="cls-7" x1="1314.76" y1="1" x2="1605.13" y2="286.02"/><line class="cls-2" x1="1139.59" y1="1" x2="1284.77" y2="286.02"/><line class="cls-6" x1="964.42" y1="1" x2="964.42" y2="286.02"/><line class="cls-3" x1="789.25" y1="1" x2="644.06" y2="286.02"/><line class="cls-1" x1="614.08" y1="1" x2="323.71" y2="286.02"/></g></g></svg>