<?xml version="1.0" encoding="UTF-8"?><svg id="Capa_2" xmlns="http://www.w3.org/2000/svg" xmlns:xlink="http://www.w3.org/1999/xlink" viewBox="0 0 1927.78 678.59"><defs><style>.cls-1{stroke:url(#Degradado_sin_nombre_146-5);}.cls-1,.cls-2,.cls-3,.cls-4,.cls-5,.cls-6,.cls-7,.cls-8,.cls-9,.cls-10,.cls-11{fill:none;stroke-miterlimit:10;stroke-width:3.08px;}.cls-2{stroke:url(#Degradado_sin_nombre_146-11);}.cls-3{stroke:url(#Degradado_sin_nombre_146-7);}.cls-4{stroke:url(#Degradado_sin_nombre_146-2);}.cls-5{stroke:url(#Degradado_sin_nombre_146);}.cls-6{stroke:url(#Degradado_sin_nombre_146-6);}.cls-7{stroke:url(#Degradado_sin_nombre_146-4);}.cls-8{stroke:url(#Degradado_sin_nombre_146-8);}.cls-9{stroke:url(#Degradado_sin_nombre_146-3);}.cls-10{stroke:url(#Degradado_sin_nombre_146-10);}.cls-12{opacity:.25;}.cls-11{stroke:url(#Degradado_sin_nombre_146-9);}</style><linearGradient id="Degradado_sin_nombre_146" x1="963.89" y1="678.59" x2="963.89" y2="0" gradientTransform="matrix(1, 0, 0, 1, 0, 0)" gradientUnits="userSpaceOnUse"><stop offset="0" stop-color="#92278e"/><stop offset="1" stop-color="#92278e" stop-opacity="0"/></linearGradient><linearGradient id="Degradado_sin_nombre_146-2" x1="963.89" y1="497.68" x2="963.89" y2="494.6" xlink:href="#Degradado_sin_nombre_146"/><linearGradient id="Degradado_sin_nombre_146-3" x1="963.89" y1="355.93" x2="963.89" y2="352.85" xlink:href="#Degradado_sin_nombre_146"/><linearGradient id="Degradado_sin_nombre_146-4" x1="963.89" y1="241.87" x2="963.89" y2="238.79" xlink:href="#Degradado_sin_nombre_146"/><linearGradient id="Degradado_sin_nombre_146-5" x1="963.89" y1="148.11" x2="963.89" y2="145.03" xlink:href="#Degradado_sin_nombre_146"/><linearGradient id="Degradado_sin_nombre_146-6" x1="963.89" y1="69.67" x2="963.89" y2="66.59" xlink:href="#Degradado_sin_nombre_146"/><linearGradient id="Degradado_sin_nombre_146-7" x1="1459.41" y1="677.66" x2="1459.41" y2=".93" xlink:href="#Degradado_sin_nombre_146"/><linearGradient id="Degradado_sin_nombre_146-8" x1="1211.65" y1="677.37" x2="1211.65" y2="1.22" xlink:href="#Degradado_sin_nombre_146"/><linearGradient id="Degradado_sin_nombre_146-9" x1="963.89" y1="677.05" x2="963.89" y2="1.54" xlink:href="#Degradado_sin_nombre_146"/><linearGradient id="Degradado_sin_nombre_146-10" x1="716.13" y1="677.37" x2="716.13" y2="1.22" xlink:href="#Degradado_sin_nombre_146"/><linearGradient id="Degradado_sin_nombre_146-11" x1="468.37" y1="677.66" x2="468.37" y2=".93" xlink:href="#Degradado_sin_nombre_146"/></defs><g id="Capa_2-2"><g class="cls-12"><polygon class="cls-5" points="438.38 1.54 1489.4 1.54 1924.96 677.05 2.82 677.05 438.38 1.54"/><line class="cls-4" x1="119.47" y1="496.14" x2="1808.31" y2="496.14"/><line class="cls-9" x1="210.87" y1="354.39" x2="1716.91" y2="354.39"/><line class="cls-7" x1="284.41" y1="240.33" x2="1643.37" y2="240.33"/><line class="cls-1" x1="344.87" y1="146.57" x2="1582.91" y2="146.57"/><line class="cls-6" x1="395.45" y1="68.13" x2="1532.33" y2="68.13"/><line class="cls-3" x1="1314.23" y1="1.54" x2="1604.6" y2="677.05"/><line class="cls-8" x1="1139.06" y1="1.54" x2="1284.24" y2="677.05"/><line class="cls-11" x1="963.89" y1="1.54" x2="963.89" y2="677.05"/><line class="cls-10" x1="788.72" y1="1.54" x2="643.53" y2="677.05"/><line class="cls-2" x1="613.55" y1="1.54" x2="323.18" y2="677.05"/></g></g></svg>