<?xml version="1.0" encoding="UTF-8"?><svg id="Capa_2" xmlns="http://www.w3.org/2000/svg" xmlns:xlink="http://www.w3.org/1999/xlink" viewBox="0 0 1928 477.47"><defs><style>.cls-1{stroke:url(#Degradado_sin_nombre_86);}.cls-1,.cls-2,.cls-3,.cls-4,.cls-5,.cls-6,.cls-7,.cls-8,.cls-9,.cls-10,.cls-11{fill:none;stroke-miterlimit:10;stroke-width:2.58px;}.cls-2{stroke:url(#Degradado_sin_nombre_86-8);}.cls-3{stroke:url(#Degradado_sin_nombre_86-11);}.cls-4{stroke:url(#Degradado_sin_nombre_86-4);}.cls-5{stroke:url(#Degradado_sin_nombre_86-6);}.cls-6{stroke:url(#Degradado_sin_nombre_86-5);}.cls-7{stroke:url(#Degradado_sin_nombre_86-3);}.cls-8{stroke:url(#Degradado_sin_nombre_86-2);}.cls-9{stroke:url(#Degradado_sin_nombre_86-9);}.cls-10{stroke:url(#Degradado_sin_nombre_86-7);}.cls-12{opacity:.25;}.cls-11{stroke:url(#Degradado_sin_nombre_86-10);}</style><linearGradient id="Degradado_sin_nombre_86" x1="964" y1="477.47" x2="964" y2="0" gradientTransform="matrix(1, 0, 0, 1, 0, 0)" gradientUnits="userSpaceOnUse"><stop offset="0" stop-color="#ffbbd4"/><stop offset="1" stop-color="#ffbbd4" stop-opacity="0"/></linearGradient><linearGradient id="Degradado_sin_nombre_86-2" x1="964" y1="350.29" x2="964" y2="347.71" xlink:href="#Degradado_sin_nombre_86"/><linearGradient id="Degradado_sin_nombre_86-3" x1="964" y1="250.64" x2="964" y2="248.06" xlink:href="#Degradado_sin_nombre_86"/><linearGradient id="Degradado_sin_nombre_86-4" x1="964" y1="170.46" x2="964" y2="167.88" xlink:href="#Degradado_sin_nombre_86"/><linearGradient id="Degradado_sin_nombre_86-5" x1="964" y1="104.54" x2="964" y2="101.96" xlink:href="#Degradado_sin_nombre_86"/><linearGradient id="Degradado_sin_nombre_86-6" x1="964" y1="49.4" x2="964" y2="46.81" xlink:href="#Degradado_sin_nombre_86"/><linearGradient id="Degradado_sin_nombre_86-7" x1="1459.52" y1="476.86" x2="1459.52" y2=".62" xlink:href="#Degradado_sin_nombre_86"/><linearGradient id="Degradado_sin_nombre_86-8" x1="1211.76" y1="476.56" x2="1211.76" y2=".91" xlink:href="#Degradado_sin_nombre_86"/><linearGradient id="Degradado_sin_nombre_86-9" x1="964" y1="476.18" x2="964" y2="1.29" xlink:href="#Degradado_sin_nombre_86"/><linearGradient id="Degradado_sin_nombre_86-10" x1="716.24" y1="476.56" x2="716.24" y2=".91" xlink:href="#Degradado_sin_nombre_86"/><linearGradient id="Degradado_sin_nombre_86-11" x1="468.48" y1="476.86" x2="468.48" y2=".62" xlink:href="#Degradado_sin_nombre_86"/></defs><g id="Capa_2-2"><g class="cls-12"><polygon class="cls-1" points="438.49 1.29 1489.51 1.29 1925.07 476.18 2.94 476.18 438.49 1.29"/><line class="cls-8" x1="119.58" y1="349" x2="1808.42" y2="349"/><line class="cls-7" x1="210.98" y1="249.35" x2="1717.02" y2="249.35"/><line class="cls-4" x1="284.52" y1="169.17" x2="1643.48" y2="169.17"/><line class="cls-6" x1="344.98" y1="103.25" x2="1583.02" y2="103.25"/><line class="cls-5" x1="395.56" y1="48.11" x2="1532.44" y2="48.11"/><line class="cls-10" x1="1314.34" y1="1.29" x2="1604.71" y2="476.18"/><line class="cls-2" x1="1139.17" y1="1.29" x2="1284.36" y2="476.18"/><line class="cls-9" x1="964" y1="1.29" x2="964" y2="476.18"/><line class="cls-11" x1="788.83" y1="1.29" x2="643.65" y2="476.18"/><line class="cls-3" x1="613.66" y1="1.29" x2="323.29" y2="476.18"/></g></g></svg>