<?xml version="1.0" encoding="UTF-8"?><svg id="Capa_2" xmlns="http://www.w3.org/2000/svg" viewBox="0 0 91.19 91.41"><defs><style>.cls-1,.cls-2{fill:#fff;}.cls-2{fill-rule:evenodd;}</style></defs><g id="Capa_2-2"><g><path class="cls-1" d="M0,91.41l6.55-24.45C2.84,60.26,.89,52.76,.89,45.15,.89,20.25,21.14,0,46.04,0s45.15,20.25,45.15,45.15-20.25,45.15-45.15,45.15c-7.47,0-14.85-1.89-21.46-5.47L0,91.41Zm25.8-15.75l1.55,.92c5.68,3.39,12.15,5.18,18.69,5.18,20.19,0,36.61-16.42,36.61-36.61S66.23,8.53,46.04,8.53,9.42,24.96,9.42,45.15c0,6.67,1.85,13.23,5.35,18.98l.95,1.56-3.66,13.65,13.73-3.68Z"/><path class="cls-2" d="M62.83,51.43c-1.86-1.11-4.28-2.35-6.47-1.46-1.68,.69-2.75,3.32-3.84,4.66-.56,.69-1.23,.8-2.08,.45-6.3-2.51-11.14-6.72-14.61-12.52-.59-.9-.48-1.61,.23-2.45,1.05-1.24,2.37-2.64,2.66-4.31,.28-1.67-.5-3.62-1.19-5.1-.88-1.9-1.87-4.6-3.77-5.68-1.75-.99-4.05-.43-5.61,.83-2.69,2.19-3.98,5.62-3.94,9.01,.01,.97,.13,1.93,.35,2.86,.54,2.24,1.58,4.33,2.74,6.32,.88,1.5,1.83,2.96,2.86,4.36,3.37,4.58,7.57,8.56,12.42,11.54,2.43,1.49,5.04,2.79,7.75,3.68,3.04,1,5.74,2.05,9.02,1.42,3.43-.65,6.82-2.78,8.18-6.08,.4-.98,.61-2.07,.38-3.1-.47-2.14-3.36-3.41-5.09-4.44Z"/></g></g></svg>