<?xml version="1.0" encoding="UTF-8"?><svg id="Capa_2" xmlns="http://www.w3.org/2000/svg" xmlns:xlink="http://www.w3.org/1999/xlink" viewBox="0 0 1927.18 177.18"><defs><style>.cls-1{stroke:url(#Degradado_sin_nombre_62);}.cls-1,.cls-2,.cls-3,.cls-4,.cls-5,.cls-6,.cls-7,.cls-8,.cls-9,.cls-10,.cls-11{fill:none;stroke-miterlimit:10;stroke-width:1.57px;}.cls-2{stroke:url(#Degradado_sin_nombre_62-6);}.cls-3{stroke:url(#Degradado_sin_nombre_62-4);}.cls-4{stroke:url(#Degradado_sin_nombre_62-2);}.cls-5{stroke:url(#Degradado_sin_nombre_62-7);}.cls-6{stroke:url(#Degradado_sin_nombre_62-5);}.cls-7{stroke:url(#Degradado_sin_nombre_62-3);}.cls-8{stroke:url(#Degradado_sin_nombre_62-9);}.cls-9{stroke:url(#Degradado_sin_nombre_62-8);}.cls-10{stroke:url(#Degradado_sin_nombre_62-10);}.cls-11{stroke:url(#Degradado_sin_nombre_62-11);}.cls-12{opacity:.25;}</style><linearGradient id="Degradado_sin_nombre_62" x1="9335.23" y1="15124.88" x2="9335.23" y2="14947.7" gradientTransform="translate(10298.82 15124.88) rotate(-180)" gradientUnits="userSpaceOnUse"><stop offset="0" stop-color="#f05a24"/><stop offset="1" stop-color="#f05a24" stop-opacity="0"/></linearGradient><linearGradient id="Degradado_sin_nombre_62-2" x1="9335.23" y1="15077.85" x2="9335.23" y2="15076.28" xlink:href="#Degradado_sin_nombre_62"/><linearGradient id="Degradado_sin_nombre_62-3" x1="9335.23" y1="15041" x2="9335.23" y2="15039.43" xlink:href="#Degradado_sin_nombre_62"/><linearGradient id="Degradado_sin_nombre_62-4" x1="9335.23" y1="15011.35" x2="9335.23" y2="15009.78" xlink:href="#Degradado_sin_nombre_62"/><linearGradient id="Degradado_sin_nombre_62-5" x1="9335.23" y1="14986.98" x2="9335.23" y2="14985.41" xlink:href="#Degradado_sin_nombre_62"/><linearGradient id="Degradado_sin_nombre_62-6" x1="9335.23" y1="14966.58" x2="9335.23" y2="14965.02" xlink:href="#Degradado_sin_nombre_62"/><linearGradient id="Degradado_sin_nombre_62-7" x1="9829.97" y1="15124.77" x2="9829.97" y2="14947.82" xlink:href="#Degradado_sin_nombre_62"/><linearGradient id="Degradado_sin_nombre_62-8" x1="9582.6" y1="15124.6" x2="9582.6" y2="14947.99" xlink:href="#Degradado_sin_nombre_62"/><linearGradient id="Degradado_sin_nombre_62-9" x1="9335.23" y1="15124.1" x2="9335.23" y2="14948.49" xlink:href="#Degradado_sin_nombre_62"/><linearGradient id="Degradado_sin_nombre_62-10" x1="9087.85" y1="15124.6" x2="9087.85" y2="14947.99" xlink:href="#Degradado_sin_nombre_62"/><linearGradient id="Degradado_sin_nombre_62-11" x1="8840.48" y1="15124.77" x2="8840.48" y2="14947.82" xlink:href="#Degradado_sin_nombre_62"/></defs><g id="Capa_2-2"><g class="cls-12"><polygon class="cls-1" points="1488.27 176.39 438.91 176.39 4.04 .78 1923.14 .78 1488.27 176.39"/><line class="cls-4" x1="1806.68" y1="47.81" x2="120.5" y2="47.81"/><line class="cls-7" x1="1715.42" y1="84.66" x2="211.75" y2="84.66"/><line class="cls-3" x1="1642" y1="114.32" x2="285.18" y2="114.32"/><line class="cls-6" x1="1581.63" y1="138.69" x2="345.54" y2="138.69"/><line class="cls-2" x1="1531.14" y1="159.08" x2="396.04" y2="159.08"/><line class="cls-5" x1="613.8" y1="176.39" x2="323.89" y2=".78"/><line class="cls-9" x1="788.7" y1="176.39" x2="643.74" y2=".78"/><line class="cls-8" x1="963.59" y1="176.39" x2="963.59" y2=".78"/><line class="cls-10" x1="1138.48" y1="176.39" x2="1283.44" y2=".78"/><line class="cls-11" x1="1313.37" y1="176.39" x2="1603.29" y2=".78"/></g></g></svg>