<?xml version="1.0" encoding="UTF-8"?><svg id="Capa_2" xmlns="http://www.w3.org/2000/svg" viewBox="0 0 119.73 121.92"><defs><style>.cls-1{fill:#fff;}.cls-2{fill:#b2b2b2;}.cls-3{fill:#4d4d4d;}.cls-4{fill:gray;}.cls-5{fill:#ec1c24;}.cls-6{fill:#0d0f1f;}</style></defs><g id="Capa_2-2"><g><path class="cls-5" d="M68.18,11.62L110.69,2.1c4.25-.95,8.05,2.82,7.13,7.07l-9.01,41.65c-.99,4.55-6.58,6.27-9.95,3.04L65.36,21.74c-3.43-3.29-1.82-9.07,2.82-10.11Z"/><path class="cls-2" d="M74.18,108.78L12.52,49.65c-9.05-8.68-6-23.82,5.71-28.31L70.82,1.14c6.19-2.38,13.19-.96,17.97,3.62l25.68,24.63c4.65,4.46,6.4,11.15,4.53,17.31l-16.61,54.7c-3.71,12.21-19,16.21-28.2,7.37Z"/><path class="cls-4" d="M100.39,18.74l-12.61-12.1c-3.42-3.28-8.4-4.3-12.84-2.65L20.62,24.29c-9.03,3.38-11.44,15.03-4.48,21.71l64.55,61.91L100.39,18.74Z"/><path class="cls-6" d="M82.95,10.44l26.14,25.07c2.74,2.63,3.77,6.57,2.66,10.2l-7.52,24.65c-2.19,7.18-11.18,9.52-16.59,4.33L46.45,35.2c-5.14-4.93-3.67-13.49,2.81-16.43l22.56-10.23c3.75-1.7,8.15-.95,11.12,1.9Z"/><path class="cls-3" d="M20.51,29.15c6.59,13.82,28.13,51.62,73.86,70.73,2.88,1.2,4.35,4.42,3.34,7.37l-3.66,10.66c-1.06,3.09-4.43,4.75-7.52,3.67C71.7,116.41,30.86,97.4,.65,38.44c-1.55-3.03-.22-6.76,2.91-8.12l9.27-4.04c2.92-1.27,6.32-.01,7.69,2.86Z"/><path class="cls-2" d="M19.73,50.05c4.81,10.09,20.55,37.7,53.96,51.67,2.1,.88,3.18,3.23,2.44,5.38l-2.68,7.79c-.78,2.26-3.24,3.47-5.49,2.68-10.83-3.78-40.66-17.67-62.73-60.74-1.13-2.21-.16-4.94,2.12-5.93l6.77-2.95c2.13-.93,4.61,0,5.61,2.09Z"/><path class="cls-1" d="M103.8,33.73l4.08,3.91c1.23,1.18,1.63,2.98,1.02,4.57l-11.01,28.8c-1.17,3.06-5.08,3.94-7.45,1.67l-4-3.84,17.36-35.11Z"/><polygon class="cls-1" points="102.46 32.44 97.88 28.05 90.76 56.37 102.46 32.44"/></g></g></svg>