<?xml version="1.0" encoding="UTF-8"?><svg id="Capa_2" xmlns="http://www.w3.org/2000/svg" viewBox="0 0 368.12 93.99"><defs><style>.cls-1{fill:#ffbbd4;}</style></defs><g id="CONTENIDO"><path class="cls-1" d="M.85,93.99l-.85-.66s2.8-3.56,7.95-9.13l.79,.73c-5.12,5.53-7.86,9.03-7.89,9.06Zm366.53-7.4c-2.92-2.77-5.87-5.51-8.79-8.14l.72-.8c2.92,2.64,5.89,5.38,8.81,8.16l-.74,.78ZM17.09,76.32l-.75-.76c2.82-2.78,5.76-5.56,8.74-8.28l.72,.79c-2.97,2.7-5.91,5.48-8.71,8.25Zm332.49-5.77c-3.06-2.61-6.17-5.18-9.23-7.64l.67-.84c3.07,2.46,6.18,5.04,9.25,7.66l-.7,.82ZM34.84,60.19l-.69-.82c3.07-2.57,6.22-5.11,9.38-7.54l.66,.85c-3.14,2.42-6.29,4.95-9.35,7.51Zm296.06-4.64c-3.22-2.42-6.48-4.79-9.69-7.04l.62-.88c3.22,2.26,6.5,4.63,9.72,7.06l-.65,.86ZM53.83,45.55l-.62-.88c3.28-2.32,6.64-4.59,9.97-6.74l.58,.9c-3.32,2.14-6.66,4.4-9.93,6.71Zm257.45-3.73c-3.37-2.18-6.79-4.31-10.17-6.32l.55-.92c3.39,2.02,6.82,4.15,10.21,6.34l-.58,.9Zm-237.31-9.26l-.54-.93c3.47-2.03,7.01-3.99,10.52-5.83l.5,.95c-3.5,1.83-7.02,3.79-10.48,5.81Zm216.72-2.97c-3.53-1.91-7.11-3.74-10.65-5.46l.47-.97c3.55,1.72,7.15,3.57,10.7,5.48l-.51,.95ZM95.18,21.45l-.45-.97c3.65-1.69,7.36-3.3,11.03-4.79l.4,1c-3.66,1.48-7.35,3.08-10.99,4.77Zm173.96-2.29c-3.68-1.58-7.42-3.08-11.11-4.45l.38-1.01c3.71,1.38,7.46,2.88,11.16,4.47l-.42,.99ZM117.38,12.49l-.35-1.02c3.8-1.31,7.66-2.52,11.47-3.6l.29,1.03c-3.79,1.08-7.64,2.28-11.42,3.59Zm129.33-1.67c-3.81-1.2-7.69-2.3-11.51-3.28l.27-1.04c3.84,.98,7.73,2.09,11.56,3.3l-.32,1.02Zm-106.31-4.87l-.23-1.05c3.91-.88,7.88-1.65,11.81-2.29l.17,1.06c-3.91,.64-7.86,1.41-11.75,2.28Zm83.14-1.06c-3.92-.77-7.89-1.44-11.8-1.97l.15-1.06c3.93,.54,7.92,1.21,11.86,1.98l-.21,1.05Zm-59.54-2.8l-.11-1.07c3.97-.41,8.01-.71,11.99-.88l.05,1.07c-3.96,.17-7.97,.46-11.93,.87Zm35.84-.46c-3.97-.31-7.99-.5-11.95-.57l.02-1.07c3.98,.07,8.03,.26,12.01,.57l-.08,1.07Z"/></g></svg>