<svg xmlns="http://www.w3.org/2000/svg" xmlns:xlink="http://www.w3.org/1999/xlink" viewBox="0 0 398.85 364.5"><defs><style>.cls-1{fill:#e94e1b;}.cls-2{fill:#68c1b4;opacity:0.2;}.cls-3{isolation:isolate;}.cls-4{fill:#b1c2b3;}.cls-5{fill:#3f616f;}.cls-6{clip-path:url(#clip-path);}.cls-12,.cls-17,.cls-24,.cls-7{fill:#fff;}.cls-16,.cls-8{fill:#161616;}.cls-9{fill:#a01846;}.cls-10{fill:#510021;}.cls-11{fill:#231f20;}.cls-12,.cls-13,.cls-16,.cls-17,.cls-18{mix-blend-mode:soft-light;}.cls-13{fill:#1a1a1a;}.cls-14{fill:#900;}.cls-15{fill:#ec4963;}.cls-17{opacity:0.69;}.cls-18{opacity:0.5;}.cls-19{clip-path:url(#clip-path-2);}.cls-20{fill:#c53a25;}.cls-20,.cls-21,.cls-22{fill-rule:evenodd;}.cls-21{fill:#bd1622;}.cls-22{fill:#8e1821;}.cls-23{fill:none;stroke:#fff;stroke-miterlimit:10;stroke-width:0.9px;}.cls-24{opacity:0.27;}.cls-25{fill:#ad0e0e;}.cls-26,.cls-27{fill:#ededed;}.cls-26{opacity:0.6;}.cls-27{opacity:0.4;}</style><clipPath id="clip-path"><path class="cls-1" d="M10.16,308.35,0,330.3l23.6,34.2L89,361.13l24.66-48.5L311,236.79l36.49-69L338.2,89.14,163,155.56,78.45,214.69s-40.66,35.74-42.83,39.39S10.16,308.35,10.16,308.35Z"/></clipPath><clipPath id="clip-path-2"><polygon class="cls-2" points="162.98 155.56 32.83 210.79 7.83 263.23 10.16 308.35 37.17 295 64.19 247.13 142.5 205.13 162.98 155.56"/></clipPath></defs><g class="cls-3"><g id="Capa_2" data-name="Capa 2"><g id="Capa_2-2" data-name="Capa 2"><polygon class="cls-4" points="357.1 101.05 398.85 86.31 383.18 194.71 336.28 210.57 357.1 101.05"/><polygon class="cls-5" points="319.43 108.25 371.51 87.72 375.56 166.13 351.24 209.72 287.75 236.73 319.43 108.25"/><path class="cls-1" d="M10.16,308.35,0,330.3l23.6,34.2L89,361.13l24.66-48.5L311,236.79l36.49-69L338.2,89.14,163,155.56,78.45,214.69s-40.66,35.74-42.83,39.39S10.16,308.35,10.16,308.35Z"/><g class="cls-6"><polygon class="cls-7" points="219.84 193.99 215.89 195.35 217.62 200.35 221.57 198.99 225.83 211.21 244.02 204.93 242.26 199.85 229.69 204.19 227.23 197.04 237.19 193.59 235.47 188.59 225.5 192.03 223.22 185.44 235.79 181.1 234.04 176.02 215.85 182.29 219.84 193.99"/><polygon class="cls-7" points="263.46 192.57 253.58 195.94 245.35 172.11 239.73 174.05 249.71 202.97 269.83 196.02 266.71 186.99 262.11 188.66 263.46 192.57"/><polygon class="cls-7" points="291.17 156.29 284.86 158.47 278 174.86 273.68 162.33 268.06 164.27 272.35 176.81 268.71 178.07 270.23 182.46 273.86 181.2 278.04 193.18 283.66 191.24 279.52 179.25 294.84 187.39 301.15 185.21 284.45 174.68 291.17 156.29"/><path class="cls-7" d="M309.68,149.91l-12.24,4.22.2.58,1.42,4.11,7.28-2.51-1.47,27.62,5.84-2,.15-6.83,10.74-3.71,4.36,5.28,6.11-2.12ZM311,169.05l.31-10.51,6.62,8.11Z"/><path class="cls-7" d="M211.42,201.77a6.1,6.1,0,0,0-4.19-1.29,5.67,5.67,0,0,0,1.45-3,8,8,0,0,0-.43-3.72,7.56,7.56,0,0,0-4.33-4.68,9.59,9.59,0,0,0-7.08,0l-6.4,2-4.31,1.48,4.11,11.65-3.89,1.34,1.58,4.57,3.89-1.34,4.29,12.7L206.7,218a20.54,20.54,0,0,0,4.11-1.8,8.35,8.35,0,0,0,2.32-2.24,8,8,0,0,0,1.53-3.88,10.38,10.38,0,0,0-.54-4.45A7.77,7.77,0,0,0,211.42,201.77Zm-18.24-6,5.25-1.81a3.46,3.46,0,1,1,2.26,6.55l-5.24,1.81Zm12.45,16.9-5.91,2-2.66-7.7,5.91-2a4.07,4.07,0,1,1,2.66,7.7Z"/></g><polygon class="cls-8" points="289.97 83.31 355.28 71.43 360.13 63.49 293.88 66.68 289.97 83.31"/><polygon class="cls-8" points="293.57 23.77 359.5 0 367.95 2.55 293.33 37.51 293.57 23.77"/><polygon class="cls-4" points="56.39 106.39 76.91 125.67 142.19 112.61 117.18 85.5 56.39 106.39"/><polygon class="cls-1" points="67.22 95.73 81.42 101.54 119.64 100.08 140.27 119.89 224.93 106.48 291.8 88.64 335.94 19.61 336.42 5.2 67.22 95.73"/><polygon class="cls-9" points="192.97 173.44 184.52 87.83 289.67 93.12 297.35 145.7 192.97 173.44"/><polygon class="cls-10" points="244.81 102.84 234.95 106.12 237.92 142.74 246.3 146.48 241.03 140.22 238.45 107.68 244.81 102.84"/><polygon class="cls-10" points="268.96 101.09 259.1 104.37 262.08 140.99 270.45 144.73 265.18 138.47 262.6 105.93 268.96 101.09"/><polygon class="cls-4" points="202.84 88.75 223.04 99.7 226.09 154.1 216.65 167.14 192.97 173.44 184.52 87.83 202.84 88.75"/><polygon class="cls-11" points="189.88 94.28 197.25 166.57 208.69 155.46 203.85 101.46 189.88 94.28"/><polygon class="cls-9" points="78.31 351.88 69.86 266.28 175.01 271.56 182.69 324.14 78.31 351.88"/><polygon class="cls-10" points="130.14 281.28 120.29 284.56 123.26 321.18 131.63 324.92 126.36 318.66 123.78 286.12 130.14 281.28"/><polygon class="cls-10" points="154.29 279.53 144.44 282.81 147.41 319.43 155.79 323.17 150.51 316.91 147.94 284.37 154.29 279.53"/><polygon class="cls-4" points="88.18 267.2 108.38 278.14 111.43 332.54 101.99 345.58 78.31 351.88 69.86 266.28 88.18 267.2"/><polygon class="cls-11" points="75.21 272.72 82.59 345.01 94.02 333.9 89.19 279.9 75.21 272.72"/><polygon class="cls-12" points="286.72 93.43 205.03 99.03 185.42 88.6 195.36 89.3 203.26 93.88 221.99 93.62 228.85 94.56 286.72 93.43"/><polygon class="cls-13" points="295.88 143.82 211.01 154.15 194.31 171.81 295.88 143.82"/><polygon class="cls-13" points="266.06 148.61 212.02 156.52 204.21 164.67 212.64 159.6 266.06 148.61"/><polygon class="cls-12" points="171.68 272.3 89.99 277.9 70.37 267.47 80.32 268.17 88.22 272.75 106.95 272.49 113.81 273.43 171.68 272.3"/><polygon class="cls-13" points="180.83 322.69 95.97 333.02 79.26 350.68 180.83 322.69"/><polygon class="cls-13" points="151.02 327.48 96.98 335.39 89.17 343.54 97.6 338.47 151.02 327.48"/><polygon class="cls-14" points="124.22 268.32 320.57 303.63 387 284.03 300.83 248.95 279.71 250.77 220.94 219.61 140 248.2 124.22 268.32"/><path class="cls-15" d="M319,293.51l26.24-44.93L362,242.93l2.53,35.25S362.24,289.86,319,293.51Z"/><polygon class="cls-16" points="74.36 120.47 78.91 124.52 131.81 113.86 124.77 107.69 74.36 120.47"/><polygon class="cls-16" points="133.79 109.88 141.39 118.25 185.72 111.22 184.74 100.33 133.79 109.88"/><polygon class="cls-16" points="235.37 89.32 297.92 74.69 291 86.45 276.61 90.74 235.37 89.32"/><polygon class="cls-13" points="188.44 147.3 191.82 176.35 297.42 146.99 185.12 183.84 183.34 149.22 188.44 147.3"/><polygon class="cls-17" points="142.74 249.89 129.42 267.33 319.38 300.96 323.82 300.74 142.74 249.89"/><path class="cls-17" d="M324.52,291.05l22.16-41.35,2.76-.63L336.93,289.2A48.13,48.13,0,0,1,324.52,291.05Z"/><polygon class="cls-12" points="294.05 108.43 336.47 92.51 337.18 106.21 296.05 120.5 294.05 108.43"/><polygon class="cls-12" points="341.4 101.85 369.26 92.17 369.97 105.87 343.66 115.5 341.4 101.85"/><polygon class="cls-12" points="373.39 97.26 396.44 89.16 390.29 130.18 375.36 135.38 373.39 97.26"/><polygon class="cls-18" points="372.85 174.15 386.02 169.28 382.35 193.77 356.11 203.06 372.85 174.15"/><polygon class="cls-18" points="372.48 166.91 344.17 177.35 319.73 221.55 349.65 208.94 372.48 166.91"/><polygon class="cls-18" points="336.59 185.69 233.1 224.12 277.97 247.27 308.95 235.64 336.59 185.69"/><polygon class="cls-18" points="74.14 327.38 20.25 354.53 25.24 362.38 87.53 359.7 92.65 349.92 76.79 353.83 74.14 327.38"/><polygon class="cls-18" points="237.52 223.9 278 245.34 307.7 234.97 310.44 229.89 278.07 240.99 237.52 223.9"/><polygon class="cls-12" points="67.77 216.88 63.44 243.03 83.42 232.12 86 209.4 67.77 216.88"/><polygon class="cls-12" points="89.19 229.79 91.14 207.13 97.87 204.55 95.55 226.07 89.19 229.79"/><polygon class="cls-12" points="14.4 258.62 19.7 258.35 26.83 244.92 36.75 217.03 33.09 214.71 14.4 258.62"/><polygon class="cls-12" points="19.36 274.58 12.79 304.75 20.7 300.65 19.36 274.58"/><polygon class="cls-13" points="124.32 270.19 174.68 278.99 176.01 292.64 120.23 270.4 124.32 270.19"/><polygon class="cls-13" points="129.66 271.86 173.56 280.21 173.87 286.11 129.66 271.86"/><polygon class="cls-2" points="162.98 155.56 32.83 210.79 7.83 263.23 10.16 308.35 37.17 295 64.19 247.13 142.5 205.13 162.98 155.56"/><g class="cls-19"><path class="cls-20" d="M75.51,279.43c.72,5.88-2.36,8.68-7.23,9.55l-9-.4c-2.25-1.22,0-4,3.63-5.1-.58-9.15,10.7-7.19,12.59-4.05Z"/><path class="cls-21" d="M51.89,278.05l.28,5.58c-2.86,1.9-2.25,3.74-.23,4.63l5.37.24a2,2,0,0,0,1-.91c.49-1.37.85-2.76,1.16-3.86,3.28-11.62-7.15-14.3-7.57-5.68Z"/><path class="cls-21" d="M69.25,257.3s5,13.07,10.45,18.71-1.41,10.84-6.16,11.91c-24.34,5.45-28.81-31.64-24.34-34.35,1.21-.73,20,3.73,20,3.73Z"/><path class="cls-22" d="M73.15,288c-12,2.48-19.07-5.4-22.62-14.27a19.91,19.91,0,0,0,6.58,5.06c9.86,4.67,16.4.06,16.4.06,3.07,2.58,2.89,6.61-.36,9.15Z"/><path class="cls-21" d="M81.47,280.77c.71,4.49-2.58,8.68-8.58,8.41l-9.07-.4c-2.46-1.11,0-3.55,3.93-4.51-.72-8.17,11.62-6.31,13.72-3.5Z"/><path class="cls-21" d="M59.94,274.9l-1.83,7.19c-3.66,2.31-4.21,4.59-2.87,5.88l5.68.83a2.93,2.93,0,0,0,1.25-1.09c.94-1.75,1.78-3.52,2.46-4.92,7.22-14.8-1.15-19-4.69-7.89Z"/><path class="cls-21" d="M69.08,255.2a32,32,0,0,0,1.42,5.13C68.62,262.27,62,267.7,48.3,266c-1.14-6.16-.68-11.42.9-12.38,1.21-.73,18.09,1.43,18.09,1.43Z"/><path class="cls-21" d="M43.42,240.15c.73-1,2.55-6.59,7-8.82s15.5.14,17.31,6.85,1.31,17,1.31,17c-3,5.46-10.6,7.37-21,5.64,0,0,7.37-7.95-7.06-12.21-5.65-1.67.41-.09,3.76-2s-.17-6.8-.17-6.79Z"/><path class="cls-21" d="M44,239.12s-.48,2.14-5.29,2-6.85.45-6.59,2.48c.42,3.29,2,4.93,2.88,6.34,1.89,3.2,3.53,3.76,6.06,4.17a16,16,0,0,1,4,3.36c2.79,2.94,3.19,5,3.19,5l12.43-7,.27-7.26-1.73-6.86L56.5,238"/><path class="cls-21" d="M67.22,240.6s6.15-14.2,3.49-14.94-10.09,8-10.09,8A38.57,38.57,0,0,1,67.22,240.6Z"/><path class="cls-21" d="M56.6,231.4s-4.63-11.83-6.06-9.94-.91,11.36-.91,11.36S53.09,230.56,56.6,231.4Z"/><path class="cls-21" d="M79.72,277a.56.56,0,0,1,0-1c.67-.56,2.59-1.25,2.15-3-.86-3.46-3.33-13.39,6.89-16.37,0,0-2.15,2.46-1.52,4.81C87.78,263.52,94.39,275,79.72,277Z"/><circle class="cls-23" cx="51.82" cy="238.75" r="25.17" transform="translate(-145.35 94.48) rotate(-41.56)"/><circle class="cls-24" cx="51.82" cy="238.75" r="25.17" transform="translate(-145.35 94.48) rotate(-41.56)"/><path class="cls-7" d="M72.17,227.61l-.69,2.92s4.93,8.94,2,16.62C73.52,247.15,78.35,236.75,72.17,227.61Z"/></g><polyline class="cls-25" points="156.01 172.43 44.25 219.3 21.03 261.23 23.13 301.94 26.79 300.13 24.58 261.34 47.08 221.81 153.9 177.54 155.48 173.7"/><polygon class="cls-25" points="44.25 220.43 32.08 212.37 32.83 210.79 34.57 210.05 47.13 218.88 44.25 220.43"/><polygon class="cls-25" points="22.9 260.25 8.91 260.97 7.83 263.23 7.92 265 23.07 263.63 22.9 260.25"/><polygon class="cls-26" points="16.75 329.68 28.16 341.3 39.58 329.68 16.75 329.68"/><polygon class="cls-26" points="39.58 329.68 16.76 329.68 16.75 311.01 39.58 329.68"/><polygon class="cls-26" points="16.75 329.68 39.58 329.68 39.58 311.01 16.75 329.68"/><polygon class="cls-27" points="28.22 341.16 39.57 329.68 39.58 311.01 28.22 341.16"/><polygon class="cls-27" points="28.11 341.16 16.75 329.68 16.75 311.01 28.11 341.16"/><polygon class="cls-1" points="32.55 329.68 28.16 335.49 23.78 329.68 32.55 329.68"/></g></g></g></svg>