<?xml version="1.0" encoding="UTF-8"?><svg id="Capa_2" xmlns="http://www.w3.org/2000/svg" viewBox="0 0 64.09 76.75"><defs><style>.cls-1{fill:#fff;stroke:#ff5f8c;stroke-miterlimit:10;stroke-width:.68px;}</style></defs><g id="Capa_3"><g><path class="cls-1" d="M10.67,36.6L32.05,15.05l21.37,21.55c2.36,2.36,6.19,2.36,8.56,0,2.36-2.39,2.36-6.25,0-8.64L36.32,2.11c-2.36-2.36-6.19-2.36-8.55,0L2.11,27.96c-2.36,2.39-2.36,6.25,0,8.64,2.37,2.36,6.19,2.36,8.56,0h0Z"/><path class="cls-1" d="M36.32,40.14c-2.36-2.36-6.19-2.36-8.55,0L2.11,65.99c-2.36,2.39-2.36,6.25,0,8.64,2.36,2.36,6.19,2.36,8.56,0l21.38-21.55,21.37,21.55c2.36,2.36,6.19,2.36,8.56,0,2.36-2.39,2.36-6.25,0-8.64l-25.65-25.85Z"/></g></g></svg>