<?xml version="1.0" encoding="UTF-8"?><svg id="Capa_2" xmlns="http://www.w3.org/2000/svg" viewBox="0 0 9.45 16.26"><defs><style>.cls-1{fill:#fff;}</style></defs><g id="Capa_2-2"><path class="cls-1" d="M8.35,0H1.1C.49,0,0,.49,0,1.1V15.17c0,.6,.49,1.1,1.1,1.1h7.25c.6,0,1.1-.49,1.1-1.1V1.1c0-.6-.49-1.1-1.1-1.1h0ZM3.56,.79h2.32c.07,0,.13,.06,.13,.13s-.06,.13-.13,.13H3.56c-.07,0-.13-.06-.13-.13s.06-.13,.13-.13h0Zm1.16,14.92c-.3,0-.55-.25-.55-.55s.24-.55,.55-.55,.55,.25,.55,.55-.25,.55-.55,.55h0Zm3.96-1.48H.76V1.74h7.92V14.23Z"/></g></svg>