<?xml version="1.0" encoding="UTF-8"?><svg id="Capa_2" xmlns="http://www.w3.org/2000/svg" viewBox="0 0 13.27 13.27"><defs><style>.cls-1{fill:#fff;}</style></defs><g id="Capa_2-2"><g><path class="cls-1" d="M.87,10.68h.87v.87H.87v-.87H.87Zm0-1.73h.87v.87H.87v-.87H.87Zm0-1.73h.87v.87H.87v-.87H.87Zm0-1.73h.87v.87H.87v-.87H.87Zm0-1.73h.87v.87H.87v-.87H.87ZM.43,13.27H2.6V4.18c0-.9,.9-1.53,1.75-1.22l.85,.31v-.83c0-.24-.19-.43-.43-.43h-1.73V.43c0-.24-.19-.43-.43-.43s-.43,.19-.43,.43v1.59H.43c-.24,0-.43,.19-.43,.43V12.84c0,.24,.19,.43,.43,.43H.43Z"/><path class="cls-1" d="M4.62,10.68h.87v.87h-.87v-.87h0Zm0-1.73h.87v.87h-.87v-.87h0Zm0-1.73h.87v.87h-.87v-.87h0Zm-1.15-3.03V12.84c0,.24,.19,.43,.43,.43h2.45V4.63l-2.3-.85c-.28-.1-.58,.11-.58,.41h0Z"/><path class="cls-1" d="M11.54,6.35h-.87v-.87h.87v.87h0Zm0,1.73h-.87v-.87h.87v.87h0Zm0,1.73h-.87v-.87h.87v.87h0Zm0,1.73h-.87v-.87h.87v.87h0Zm-1.73-5.19h-.87v-.87h.87v.87h0Zm0,1.73h-.87v-.87h.87v.87h0Zm0,1.73h-.87v-.87h.87v.87h0Zm0,1.73h-.87v-.87h.87v.87h0ZM12.84,2.89h-.43V1.59c0-.24-.19-.43-.43-.43h-1.3V.43c0-.24-.19-.43-.43-.43s-.43,.19-.43,.43v.72h-1.3c-.24,0-.43,.19-.43,.43v1.3h-.43c-.24,0-.43,.19-.43,.43V12.84c0,.24,.19,.43,.43,.43h5.19c.24,0,.43-.19,.43-.43V3.32c0-.24-.19-.43-.43-.43h0Z"/></g></g></svg>