<?xml version="1.0" encoding="UTF-8"?><svg id="Capa_2" xmlns="http://www.w3.org/2000/svg" viewBox="0 0 1518.41 2876.99"><defs><style>.cls-1{fill:#fff;}</style></defs><g id="Capa_2-2"><g><path class="cls-1" d="M11.22,2867.44l-.18,.06-.98,.09-.27,.44-.2-.06-.78-.7-.11-.36-.15-.39-.49-.44-.58-.11v.26l.55,.55,.28,.33-.31,.16-.25-.07-.38-.16v-.3l-.48-.2-.17,.72-.5,.11,.05,.4,.65,.13,.11-.64,.54,.08,.25,.15h.4l.28,.55,.73,.74-.05,.29-.59-.08-1.02,.51-.73,.88-.1,.39h-.26l-.49-.22-.48,.22,.12,.5,.21-.24h.36l-.03,.44,.3,.09,.3,.34,.49-.14,.56,.09,.65,.18,.33,.04,.55,.63,1.07,.63-.69,1.31-.73,.34-.28,.75-1.05,.7-.11,.41c2.69-.65,4.69-3.07,4.69-5.95,0-1.26-.38-2.44-1.04-3.41h0Z"/><path class="cls-1" d="M6.83,2874.06l-.45-.83,.41-.85-.41-.12-.46-.46-1.02-.23-.34-.71v.42h-.15l-.88-1.19v-.98l-.64-1.05-1.02,.18h-.69l-.35-.23,.44-.35-.44,.1c-.53,.91-.84,1.96-.84,3.09,0,3.38,2.74,6.13,6.13,6.13,.26,0,.52-.02,.77-.05l-.06-.74s.28-1.1,.28-1.14c0-.04-.28-.99-.28-.99h0Z"/><path class="cls-1" d="M2.28,2866.7l1.09-.15,.5-.28,.57,.16,.9-.05,.31-.49,.45,.07,1.09-.1,.3-.33,.43-.28,.6,.09,.22-.03c-.79-.37-1.68-.59-2.61-.59-1.9,0-3.6,.87-4.73,2.23h0l.87-.25Zm4.11-1.37l.63-.34,.4,.23-.58,.44-.55,.06-.25-.16,.36-.22Zm-1.85,.05l.28,.12,.36-.12,.2,.34-.83,.22-.4-.24s.39-.25,.4-.33h0Z"/></g><path class="cls-1" d="M1462.88,0s-13.89,13.74-18.98,37.9c0,0,13.17,21.35,53.55,32.38,0,0,8.54-24.65,20.96-41.58,0,0-28.63-7.94-55.52-28.7Z"/></g></svg>