<?xml version="1.0" encoding="UTF-8"?><svg id="Capa_2" xmlns="http://www.w3.org/2000/svg" viewBox="0 0 11.67 8.75"><defs><style>.cls-1{fill:#fff;}</style></defs><g id="Capa_2-2"><path class="cls-1" d="M11.67,7.29c0,.26-.07,.49-.19,.7L7.8,3.87,11.44,.68c.14,.22,.23,.49,.23,.77V7.29Zm-5.83-2.67L10.9,.18c-.21-.11-.44-.18-.7-.18H1.46c-.25,0-.49,.07-.69,.18L5.83,4.62Zm1.41-.27l-1.17,1.03c-.07,.06-.15,.09-.24,.09s-.17-.03-.24-.09l-1.17-1.03L.69,8.53c.22,.14,.49,.22,.77,.22H10.21c.28,0,.55-.08,.77-.22l-3.73-4.17ZM.23,.68c-.14,.22-.23,.49-.23,.77V7.29c0,.26,.07,.49,.19,.7L3.87,3.87,.23,.68Z"/></g></svg>