<?xml version="1.0" encoding="UTF-8"?><svg id="Capa_2" xmlns="http://www.w3.org/2000/svg" xmlns:xlink="http://www.w3.org/1999/xlink" viewBox="0 0 1927.81 624.85"><defs><style>.cls-1{stroke:url(#Degradado_sin_nombre_107-5);}.cls-1,.cls-2,.cls-3,.cls-4,.cls-5,.cls-6,.cls-7,.cls-8,.cls-9,.cls-10,.cls-11{fill:none;stroke-miterlimit:10;stroke-width:2.95px;}.cls-2{stroke:url(#Degradado_sin_nombre_107-8);}.cls-3{stroke:url(#Degradado_sin_nombre_107-9);}.cls-4{stroke:url(#Degradado_sin_nombre_107);}.cls-5{stroke:url(#Degradado_sin_nombre_107-6);}.cls-6{stroke:url(#Degradado_sin_nombre_107-3);}.cls-7{stroke:url(#Degradado_sin_nombre_107-10);}.cls-8{stroke:url(#Degradado_sin_nombre_107-11);}.cls-9{stroke:url(#Degradado_sin_nombre_107-2);}.cls-10{stroke:url(#Degradado_sin_nombre_107-4);}.cls-11{stroke:url(#Degradado_sin_nombre_107-7);}.cls-12{opacity:.25;}</style><linearGradient id="Degradado_sin_nombre_107" x1="963.9" y1="624.85" x2="963.9" y2="0" gradientTransform="matrix(1, 0, 0, 1, 0, 0)" gradientUnits="userSpaceOnUse"><stop offset="0" stop-color="#8bc53f"/><stop offset="1" stop-color="#8bc53f" stop-opacity="0"/></linearGradient><linearGradient id="Degradado_sin_nombre_107-2" x1="963.9" y1="458.3" x2="963.9" y2="455.35" xlink:href="#Degradado_sin_nombre_107"/><linearGradient id="Degradado_sin_nombre_107-3" x1="963.9" y1="327.8" x2="963.9" y2="324.85" xlink:href="#Degradado_sin_nombre_107"/><linearGradient id="Degradado_sin_nombre_107-4" x1="963.9" y1="222.8" x2="963.9" y2="219.84" xlink:href="#Degradado_sin_nombre_107"/><linearGradient id="Degradado_sin_nombre_107-5" x1="963.9" y1="136.48" x2="963.9" y2="133.52" xlink:href="#Degradado_sin_nombre_107"/><linearGradient id="Degradado_sin_nombre_107-6" x1="963.9" y1="64.26" x2="963.9" y2="61.31" xlink:href="#Degradado_sin_nombre_107"/><linearGradient id="Degradado_sin_nombre_107-7" x1="1459.43" y1="624" x2="1459.43" y2=".85" xlink:href="#Degradado_sin_nombre_107"/><linearGradient id="Degradado_sin_nombre_107-8" x1="1211.67" y1="623.71" x2="1211.67" y2="1.14" xlink:href="#Degradado_sin_nombre_107"/><linearGradient id="Degradado_sin_nombre_107-9" x1="963.9" y1="623.38" x2="963.9" y2="1.48" xlink:href="#Degradado_sin_nombre_107"/><linearGradient id="Degradado_sin_nombre_107-10" x1="716.14" y1="623.71" x2="716.14" y2="1.14" xlink:href="#Degradado_sin_nombre_107"/><linearGradient id="Degradado_sin_nombre_107-11" x1="468.38" y1="624" x2="468.38" y2=".85" xlink:href="#Degradado_sin_nombre_107"/></defs><g id="Capa_2-2"><g class="cls-12"><polygon class="cls-4" points="438.4 1.48 1489.41 1.48 1924.97 623.38 2.84 623.38 438.4 1.48"/><line class="cls-9" x1="119.49" y1="456.82" x2="1808.32" y2="456.82"/><line class="cls-6" x1="210.88" y1="326.33" x2="1716.92" y2="326.33"/><line class="cls-10" x1="284.43" y1="221.32" x2="1643.38" y2="221.32"/><line class="cls-1" x1="344.88" y1="135" x2="1582.92" y2="135"/><line class="cls-5" x1="395.46" y1="62.78" x2="1532.35" y2="62.78"/><line class="cls-11" x1="1314.24" y1="1.48" x2="1604.61" y2="623.38"/><line class="cls-2" x1="1139.07" y1="1.48" x2="1284.26" y2="623.38"/><line class="cls-3" x1="963.9" y1="1.48" x2="963.9" y2="623.38"/><line class="cls-7" x1="788.73" y1="1.48" x2="643.55" y2="623.38"/><line class="cls-8" x1="613.57" y1="1.48" x2="323.19" y2="623.38"/></g></g></svg>